<svg xmlns="http://www.w3.org/2000/svg" color-interpolation-filters="sRGB" version="1.0" viewBox="0 0 340 250" style="margin:auto"><rect width="100%" height="100%" fill="#ffcd1a" class="background"/><rect width="100%" height="100%" fill="url(#watermark)" class="watermarklayer"/><g fill="#feffff" class="bordersvg b-d1"><path fill="none" stroke="#feffff" stroke-width="3" d="M123.845 20V10L247.69 0v75.36l-123.845-10v-10" transform="translate(46.155 87.32)"/><path fill="none" d="M0 20h247.69v35.36H0z" class="i-icon-bg" data-gra="graph-name-bg" transform="translate(46.155 87.32)"/><path d="m24.68 43.97-5.87-5.87v-.76l5.87 5.88v.75Zm0-1.38-5.87-5.88v-.75l5.87 5.87v.76Zm0 2.81-5.87-5.88v-.75l5.87 5.87v.76Zm0-5.67-5.87-5.87v-.75l5.87 5.87v.75Zm0 1.43-5.87-5.87v-.76l5.87 5.87v.76Zm0-2.85-5.87-5.88v-.75l5.87 5.87v.76Zm-5.87-8.06 5.87 5.88v.75l-5.87-5.87v-.76Zm8.81 21.23v.88h-.88l.88-.88Zm0-.38-1.26 1.26h-1.05l2.31-2.31v1.05Zm-10.99-4.61-.76.75v-.75h.76Zm7.76 2.14.21.21 2.3-2.35h.72v.33l-3.23 3.23.21.17 3.02-3.02v1.05l-3.23 3.23.21.17 3.02-3.02v1.05l-2.69 2.68h-1.05l.34-.34-.21-.16-.34.33.21.17h-1.42l.33-.34-.21-.16-.29.33.17.17h-1.43l.34-.34-.17-.16-.34.33.17.17h-1.42l.33-.34-.17-.16-.33.33.17.17h-1.39l.59-.59v-.21l.08.09.34-.34-.17-.17-1.22 1.22H16.8l2.01-2.01v-.21l.08.08.34-.33-.17-.17-2.64 2.64h-.55v-.5l2.94-2.94v-.21l.08.13.34-.34-.17-.21-3.19 3.19v-1.05l2.94-2.94v-.21l.08.13.34-.34-.17-.21-3.19 3.19V49l2.52-2.51h.42v-.63l.63.63.17.21.21-.21h.25l-1.26-1.26v-.76l2.01 2.02h.04l.17.21.21-.21h.25l-2.68-2.69v-.75l3.44 3.44h.04l.17.21.21-.21h.25l-4.11-4.11v-.76l4.86 4.87h.05-.05l.21.21.21-.21h.26l-5.54-5.54v-.75l5.87 5.87v.42h.46l-.75.71.21.21.88-.92h1.05l-2.14 2.14Zm-4.95 2.14.17.16.33-.33-.17-.17-.33.34Zm0-1.43.17.17.33-.3-.17-.21-.33.34Zm0-1.43.17.21.33-.33-.17-.21-.33.33Zm.71 3.57.17.17.33-.34-.16-.17-.34.34Zm0-1.43.17.17.33-.33-.16-.17-.34.33Zm0-1.42.17.21.33-.34-.16-.21-.34.34Zm0-1.43.17.21.33-.34-.16-.21-.34.34Zm.71 3.57.17.16.34-.33-.17-.17-.34.34Zm0-1.43.17.17.34-.3-.17-.21-.34.34Zm0-1.43.17.21.34-.33-.17-.21-.34.33Zm.72 3.57.17.17.33-.34-.17-.17-.33.34Zm0-1.43.17.17.33-.33-.17-.17-.33.33Zm0-1.42.17.21.33-.34-.17-.21-.33.34Zm0-1.43.17.21.33-.34-.17-.21-.33.34Zm.71 3.57.17.16.33-.33-.21-.17-.29.34Zm0-1.43.17.17.33-.3-.21-.21-.29.34Zm0-1.43.17.21.33-.33-.21-.21-.29.33Zm.67 3.57.21.17.34-.34-.21-.17-.34.34Zm0-1.43.21.17.34-.33-.21-.17-.34.33Zm0-1.42.21.21.34-.34-.21-.21-.34.34Zm0-1.43.21.21.34-.34-.21-.21-.34.34Zm.71 3.57.21.16.34-.33-.21-.17-.34.34Zm0-1.43.21.17.34-.3-.21-.21-.34.34Zm0-1.43.21.21.34-.33-.21-.21-.34.33Zm-5.66-1.42-2.14 2.14v-1.05l1.09-1.09h1.05ZM27.24 23h6.25v8.81h-5.87v-2.94h-.55l.55-.55v-.37l-.92.92h-1.05l1.97-1.97v-.38l-2.35 2.35h-.76l.17.17v.75l-.92-.92h-.67l1.59 1.59v.76l-2.35-2.35h-.67l3.02 3.02v.75l-3.77-3.77h-.67l4.44 4.45v.75l-5.2-5.2h-.63l5.83 5.83v.76l-5.87-5.88v-.71h-2.94v2.94H10V23h10.07l.04.04.04-.04h1.34l.05.04.04-.04h1.3l.08.04L23 23h1.3l.05.04.08-.04h1.05l-.8.79v.34l-.17-.17-.33.34.17.16L25.81 23h1.05l-2.18 2.18v.38l-.17-.21-.33.33.17.21L27.24 23Zm-8.43 5.24v.38l.21-.21-.17-.21-.04.04Zm0-1.43v.38l.21-.21-.17-.21-.04.04Zm0-1.42v.38l.21-.21-.17-.21-.04.04Zm0-1.43v.38l.21-.21-.17-.17h-.04Zm.42 3.86.17.21.33-.34-.17-.21-.33.34Zm0-1.43.17.21.33-.33-.17-.21-.33.33Zm0-1.38.17.17.33-.34-.17-.17-.33.34Zm0-1.43.17.17.33-.33-.17-.17-.33.33Zm.71 4.95.17.21.34-.33-.21-.21-.3.33Zm0-1.42.17.21.34-.34-.21-.21-.3.34Zm0-1.43.17.21.34-.33-.21-.21-.3.33Zm0-1.38.17.16.34-.33-.21-.17-.3.34Zm.67 3.52.21.21.34-.34-.21-.21-.34.34Zm0-1.43.21.21.34-.33-.21-.21-.34.33Zm0-1.38.21.17.34-.34-.21-.17-.34.34Zm0-1.43.21.17.34-.33-.21-.17-.34.33Zm.72 4.95.21.21.33-.33-.21-.21-.33.33Zm0-1.42.21.21.33-.34-.21-.21-.33.34Zm0-1.43.21.21.33-.33-.21-.21-.33.33Zm0-1.38.21.16.33-.33-.21-.17-.33.34Zm.71 3.52.21.21.33-.34-.21-.21-.33.34Zm0-1.43.21.21.33-.33-.21-.21-.33.33Zm0-1.38.21.17.33-.34-.21-.17-.33.34Zm0-1.43.21.17.33-.33-.21-.17-.33.33Zm.71 4.95.21.21.34-.33-.21-.21-.34.33Zm0-1.42.21.21.34-.34-.21-.21-.34.34Zm0-1.43.21.21.34-.33-.21-.21-.34.33Zm0-1.38.21.16.34-.33-.21-.17-.34.34Zm.72 3.52.2.21.3-.34-.17-.21-.33.34Zm0-1.43.2.21.3-.33-.17-.21-.33.33Zm0-1.38.2.17.3-.34-.17-.17-.33.34Zm0-1.43.2.17.3-.33-.17-.17-.33.33Zm.88 5.16 3.27-3.27v-.38l-2.94 2.94v.34l-.17-.17-.33.33.17.21Zm0-1.42 3.27-3.27v-.38l-2.94 2.93v.34l-.17-.17-.33.34.17.21Zm12.92 25.04-1.18-1.17v-.76l1.93 1.93h-.75Zm-.63 0h-.55v-.55l.55.55Zm11.2-5.08-.8-.79h.76l.04.04v.75Zm0 1.43-2.23-2.22h.76l1.47 1.47v.75Zm-2.94-2.39-.17.17h.21l2.9 2.89v.76L44.9 47.2v.5l-.08.09 3.02 3.02v.75l-2.94-2.93v.5l-.08.08 3.02 3.02v.13h-.63l-2.31-2.31v.51l-.08.08 1.72 1.72h-.76l-.88-.88v.5l-.08.09.33.29h-6.46l-2.6-2.6V49l2.94 2.94v-.67l-2.94-2.94v-.75l2.94 2.93v-.67l-2.94-2.93v-.42h.34l2.6 2.6v-.67l-1.93-1.93h.75l1.18 1.17v-.67l-.51-.5h.51v-1.05l5.87-5.87v1.04l-5.87 5.88h.25l.04.08 5.58-5.58v1.05l-4.45 4.45h.21l.09.08 4.15-4.15v1.05l-3.02 3.02h.21l.08.08 2.73-2.73v1.05l-1.59 1.6h.21l.08.08 1.3-1.3v1.05Zm-5.75 5.75.17.16.34-.33-.17-.17-.34.34Zm0-1.43.17.17.34-.34-.17-.17-.34.34Zm0-1.43.17.17.34-.29-.17-.21-.34.33Zm0-1.42.17.21.34-.34-.17-.21-.34.34Zm.72 3.56.16.17.34-.33-.17-.17-.33.33Zm0-1.42.16.16.34-.33-.17-.17-.33.34Zm0-1.43.16.21.34-.34-.17-.2-.33.33Zm0-1.43.16.21.34-.33-.17-.21-.33.33Zm.71 5 .17.16.33-.33-.16-.17-.34.34Zm0-1.43.17.17.33-.34-.16-.17-.34.34Zm0-1.43.17.17.33-.29-.16-.21-.34.33Zm0-1.42.17.21.33-.34-.16-.21-.34.34Zm.71 3.56.17.17.34-.33-.17-.17-.34.33Zm0-1.42.17.16.34-.33-.17-.17-.34.34Zm0-1.43.17.21.34-.34-.17-.2-.34.33Zm0-1.43.17.21.34-.33-.17-.21-.34.33Zm.72 5 .16.16.34-.33-.17-.17-.33.34Zm0-1.43.16.17.34-.34-.17-.17-.33.34Zm0-1.43.16.17.34-.29-.17-.21-.33.33Zm0-1.42.16.21.34-.34-.17-.21-.33.34Zm.71 3.56.17.17.33-.33-.21-.17-.29.33Zm0-1.42.17.16.33-.33-.21-.17-.29.34Zm0-1.43.17.21.33-.34-.21-.2-.29.33Zm0-1.43.17.21.33-.33-.21-.21-.29.33Zm.67 5 .21.16.34-.33-.21-.17-.34.34Zm0-1.43.21.17.34-.34-.21-.17-.34.34Zm0-1.43.21.17.34-.29-.21-.21-.34.33Zm0-1.42.21.21.34-.34-.21-.21-.34.34Zm.71 3.56.21.17.34-.33-.21-.17-.34.33Zm0-1.42.21.16.34-.33-.21-.17-.34.34Zm0-1.43.21.21.34-.34-.21-.2-.34.33Zm0-1.43.21.21.34-.33-.21-.21-.34.33ZM47.84 23v.5l-2.94 2.94v.37l2.94-2.93v1.05l-2.94 2.93v.38l2.94-2.94v1.05l-2.52 2.52h-.42v6.08l-5.87 5.87v-1.04l5.03-5.04h-.38l-4.65 4.66v-1.05l3.61-3.61h-.38l-3.23 3.23v-1.05l2.18-2.18h-.38l-1.8 1.81V35.5l.75-.76h-.33l-.42.42v-6.29h-.46l.46-.46v-.38l-.84.84h-1.05l1.89-1.89v-.33l-2.23 2.22h-.71v-.34l2.94-2.93v-.38l-2.94 2.94v-1.05l2.94-2.94v-.38l-2.94 2.94v-1.05L38.78 23h6.71l-.59.58v.38l.97-.96h1.04l-2.01 2.01v.38L47.29 23h.55Zm0 4.74-1.14 1.13h-1.04l2.18-2.18v1.05Zm-11.75-3.49L37.35 23h1.05l-2.31 2.3v-1.05Zm0-.37V23h.88l-.88.88Zm2.94 17.32 5.87-5.87v1.05l-5.87 5.87V41.2Zm5.87-3.4-5.87 5.88v-1.05l5.87-5.87v1.04Zm2.94-9.69v.76h-.76l.76-.76ZM44.9 39.19l-5.87 5.87v-1.05l5.87-5.87v1.05Zm8.64 11.03 4.15-4.19q.21.08.36.16.15.09.36.17l-4.32 4.32q-.13-.12-.28-.23-.14-.1-.27-.23Zm8.18-21.35h-1.05l5.79-5.79.42.08q.21.05.42.09l-5.58 5.62Zm9.31-3.61-4.19 4.15q-.17-.12-.32-.21-.14-.08-.35-.16l4.28-4.28q.16.12.29.25.13.13.29.25Zm.72.67-4.2 4.2q-.17-.3-.5-.55l4.15-4.15q.17.13.3.25.12.13.25.25Zm.63.8-4.37 4.36q-.08-.21-.14-.38-.07-.16-.15-.37l4.2-4.2q.12.17.23.3.1.12.23.29Zm.96 5.08.59-.59q.04.17.04.59v1.46H68.1v-1.46q0-.26-.04-.38l4.44-4.45q.13.17.23.32.11.14.19.31l-4.19 4.2h.37l3.95-3.95q.08.21.14.36.07.15.15.36l-3.19 3.23h.34l2.98-2.94q.08.21.12.4.04.19.13.4l-2.18 2.14h.38l1.84-1.85q.08.34.17.92l-.97.93h.38Zm-8.18-2.94h-.25l4.7-4.66q.17.09.31.19.15.11.32.23l-4.37 4.32q-.41-.08-.71-.08Zm-2.01 0H62.1l5.49-5.54q.51.13.8.3l-5.24 5.24Zm1.38 0h-1l5.11-5.16q.21.08.38.17.17.08.34.17l-4.83 4.82Zm-8.18 2.94v11.74q0 .38.04.55l-4.4 4.4-.38-.63 4.32-4.32h-.37l-4.07 4.07q-.21-.38-.34-.71l3.36-3.36h-.38l-3.11 3.11q-.08-.21-.12-.4-.04-.19-.13-.4l2.31-2.31h-.38l-2.01 2.01-.13-.88 1.09-1.13h-.37l-.76.8q-.04-.21-.04-.4V31.81q0-1.81.69-3.42.69-1.62 1.89-2.81 1.19-1.2 2.79-1.89 1.59-.69 3.44-.69v.16l.17-.16h1.05l-1.22 1.21v.38L60.84 23h1.05l-2.6 2.64v.33L62.27 23h1.05l-4.03 4.02v.38l4.4-4.4h1.05l-5.45 5.45v.38L65.12 23h.52q.23 0 .49.04l-5.83 5.83h-1.01q-1.22 0-2.08.86-.86.86-.86 2.08Zm-4.19 16.9 4.32-4.28q.08.21.17.36.08.15.16.35l-4.19 4.16q-.13-.13-.23-.27-.11-.15-.23-.32Zm.63.8 4.19-4.16q.09.13.21.28.13.14.29.23l-4.15 4.19-.54-.54Zm15.31-5.96v-.5l4.78 4.74q-.08.12-.15.25-.06.13-.14.25l-4.49-4.53v-.21Zm3.98-1.47h.76l1.13 1.14v.75l-1.89-1.89Zm-1.42 0h.75l2.48 2.52q0 .21-.09.63l-3.14-3.15Zm-1.43 0h.76l3.69 3.69q-.09.34-.17.59l-4.28-4.28Zm4.74.46-.46-.46h.46v.46Zm-3.4 7.97-4.28-4.27q.26-.05.51-.26l4.19 4.2q-.17.08-.42.33Zm.76-.67-4.16-4.15q.26-.25.34-.38l4.2 4.16-.38.37Zm-12.04-3.35h5.87q.21 0 .63-.09l4.41 4.41q-.34.17-.47.29l-4.57-4.57v.17l-.25.25.21.21.04-.09v.13l4.15 4.11-.5.25-3.65-3.6v.16l-.25.25.21.17.04-.04v.13l3.15 3.14q-.13.09-.25.11-.13.02-.3.1l-2.6-2.6v.17l-.25.25.21.17.04-.04v.08l2.1 2.1-.63.12-1.47-1.46v.21l-.25.25.21.17.04-.05v.09l.88.88q-.21.04-.38.04h-.33l-.17-.17v.17H63.9l-.08-.04-.04.04h-1.3l-.05-.04-.08.04h-1.3l-.04-.04-.09.04h-1.3l-.04-.04-.08.04h-.61q-.19 0-.4-.04l.8-.76v-.29l.12.13.34-.34-.17-.17-1.42 1.39q-.21-.05-.44-.07-.24-.02-.44-.1l2.01-1.97v-.3l.12.13.34-.34-.17-.16-2.6 2.6q-.21-.09-.4-.13-.19-.04-.4-.13l3.11-3.1v-.29l.12.12.34-.33-.17-.17-3.65 3.65q-.33-.13-.71-.34l4.07-4.07v-.29l.12.17.34-.34-.17-.21-4.61 4.62q-.17-.09-.32-.19-.14-.11-.31-.23l4.36-4.36q.21.04.59.04Zm1.72.12-.34.34.17.21.34-.34-.17-.21Zm-.71.72-.34.33.17.17.33-.29-.16-.21Zm-.17 4.78.33-.34-.16-.17-.34.34.17.17Zm0-1.43.33-.33-.16-.17-.34.33.17.17Zm0-1.42.33-.34-.16-.17-.34.34.17.17Zm.71 2.14.34-.34-.17-.17-.34.34.17.17Zm0-1.43.34-.34-.17-.16-.34.33.17.17Zm0-1.43.34-.33-.17-.17-.34.33.17.17Zm.71 3.57.34-.34-.17-.17-.33.34.16.17Zm0-1.43.34-.33-.17-.17-.33.33.16.17Zm0-1.42.34-.34-.17-.17-.33.34.16.17Zm0-1.43.34-.29-.17-.21-.33.33.16.17Zm.72 3.57.33-.34-.17-.17-.33.34.17.17Zm0-1.43.33-.34-.17-.16-.33.33.17.17Zm0-1.43.33-.33-.17-.17-.33.33.17.17Zm0-1.38.33-.34-.17-.21-.33.34.17.21Zm.71 4.95.34-.34-.21-.17-.3.34.17.17Zm0-1.43.34-.33-.21-.17-.3.33.17.17Zm0-1.42.34-.34-.21-.17-.3.34.17.17Zm0-1.43.34-.29-.21-.21-.3.33.17.17Zm.71 3.57.34-.34-.21-.17-.34.34.21.17Zm0-1.43.34-.34-.21-.16-.34.33.21.17Zm0-1.43.34-.33-.21-.17-.34.33.21.17Zm0-1.38.34-.34-.21-.21-.34.34.21.21Zm.72 4.95.33-.34-.21-.17-.33.34.21.17Zm0-1.43.33-.33-.21-.17-.33.33.21.17Zm0-1.42.33-.34-.21-.17-.33.34.21.17Zm0-1.43.33-.29-.21-.21-.33.33.21.17Zm3.69-5.75h.46l4.78 4.74q-.08.21-.25.55l-4.99-4.99v-.3Zm3.9 7.01-4.24-4.2q.13-.29.21-.54l4.36 4.32q-.08.12-.16.23l-.17.19ZM91 23h12.04v5.87h-2.1L85.13 44.22v.25l-2.01 2.02h.33l1.68-1.68v1.05l-.63.63h.38l.25-.25v.25h2.93v5.87H76.32v-5.87h2.94v-.04l5.87-5.88v-.37l-5.87 5.87v-1.05l5.87-5.87v-.38l-5.87 5.87v-1.05l5.87-5.87v-.38l-5.87 5.88v-1.05l5.87-5.88v-.25l7.38-7.17H91V23Zm-5.87 20.43v-.38l-3.44 3.44h.38l3.06-3.06Zm0-1.43v-.38l-4.87 4.87h.38L85.13 42Zm15.23 4.61.04.05 2.64 2.64v.75l-1.55-1.55.33.55-.25.25.21.17.17-.17.38.67-.04.04.75.71v1.39H103l.04.04v.21h-6.21l-5.54-5.54v-.33h.42l4.41 4.4.29-.33-.17-.17-.29.29-.42-.67.21-.17-.21-.16-.12.12-.38-.63-2.69-2.68h.76l.88.84.34-.34-.21-.17-.3.3-.38-.67 4.28-4.28.38.67-3.65 3.65h.08l.17.12 3.57-3.52.38.63-2.77 2.77h.08l.17.12 2.64-2.64.42.63-1.89 1.89h.09l.12.12 1.81-1.76.37.67-.96.97h.08l.13.12.92-.88.38.67-.08.09h.08l.13.12Zm-5.67 1.43.34-.34-.21-.16-.34.33.21.17Zm.72.71.33-.33-.21-.17-.33.33.21.17Zm0-1.42.33-.34-.21-.17-.33.34.21.17Zm.71 2.14.29-.34-.17-.17-.33.34.21.17Zm0-1.43.29-.34-.17-.16-.33.33.21.17Zm.67 3.56.34-.33-.17-.17-.34.3.17.2Zm0-1.42.34-.34-.17-.16-.34.33.17.17Zm0-1.43.34-.33-.17-.17-.34.33.17.17Zm0-1.42.34-.34-.17-.17-.34.34.17.17Zm.71 4.99.34-.34-.17-.21-.33.34.16.21Zm0-1.43.34-.33-.17-.17-.33.33.16.17Zm0-1.42.34-.34-.17-.17-.33.34.16.17Zm0-1.43.34-.34-.17-.16-.33.33.16.17Zm.72 3.56.33-.33-.17-.17-.33.3.17.2Zm0-1.42.33-.34-.17-.16-.33.33.17.17Zm0-1.43.33-.33-.17-.17-.33.33.17.17Zm0-1.42.33-.34-.17-.17-.33.34.17.17Zm1.59-.51-.34.34.17.17.34-.34-.17-.17Zm-.88 5.5.34-.34-.17-.21-.34.34.17.21Zm0-1.43.34-.33-.17-.17-.34.33.17.17Zm0-1.42.34-.34-.17-.17-.34.34.17.17Zm0-1.43.34-.34-.17-.16-.34.33.17.17Zm.71 3.56.34-.33-.17-.17-.34.3.17.2Zm0-1.42.34-.34-.17-.16-.34.33.17.17Zm0-1.43.34-.33-.17-.17-.34.33.17.17Zm2.98 2.35-.33.3.2.2.34-.33-.21-.17Zm-.71-.71-.34.33.21.17.34-.33-.21-.17Zm0 1.38-.34.34.21.21.34-.34-.21-.21Zm-1.55.55.33-.34-.17-.21-.33.34.17.21Zm0-1.43.33-.33-.17-.17-.33.33.17.17Zm0-1.42.33-.34-.17-.17-.33.34.17.17Zm.83-1.22-.29.33.17.17.33-.33-.21-.17Zm0 1.43-.29.33.17.17.33-.34-.21-.16Zm0 1.42-.29.3.17.2.33-.33-.21-.17Zm-.5-3.4-.17-.16-.33.33.17.17.33-.34Zm-21.43-5.87v-1.05l5.87-5.87v1.05l-5.87 5.87Zm5.87-12.63v1.05l-5.87 5.88v-1.05l5.87-5.88Zm0 4.28v1.05l-5.87 5.87v-1.04l5.87-5.88Zm0-2.85v1.05l-5.87 5.87V36.5l5.87-5.87Zm0 1.43v1.05l-5.87 5.87v-1.05l5.87-5.87Zm6.16 10.86 4.28-4.28.42.63-4.28 4.28-.42-.63Zm2.73-6.96.38.67-4.28 4.28-.42-.71 4.32-4.24Zm.5.88.42.67-4.32 4.28-.37-.67 4.27-4.28Zm-2.13 7.84 4.27-4.28.38.68-4.28 4.27-.37-.67Zm2.68-6.96.38.67-4.28 4.28-.38-.67 4.28-4.28Zm-3.23 6.08 4.28-4.28.38.63-4.28 4.28-.38-.63Zm5.75-1.84-4.28 4.28-.42-.68 4.28-4.27.42.67ZM87.77 23v.54l-.54-.54h.54Zm15.27 24.24-.75-.75h.75v.75ZM87.77 24.21v.76L85.8 23h.75l1.22 1.21Zm-11.45 4.16.5.5h-.5v-.5ZM91.29 51.1v-.75l2.02 2.01h-.76l-1.26-1.26Zm9.57-4.61h.75l1.43 1.42v.76l-2.18-2.18Zm-9.57 1.76v-.76l4.87 4.87h-.75l-4.12-4.11Zm0 1.43v-.76l3.44 3.44h-.75l-2.69-2.68Zm0 2.68v-.59l.59.59h-.59ZM79.26 28.87h-.38l-2.56-2.56v-.75l2.94 2.93v-.5l.08-.09-3.02-3.02v-.75l2.94 2.94v-.51l.08-.08-3.02-3.02V23h.29l2.65 2.64v-.5l.08-.09L77.28 23h.76l1.22 1.21v-.46l.08-.12-.63-.63h.92l-.08.08.17.17.29-.25h1.05l-.13.08.21.17.26-.25h1.04l-.08.08.21.17.25-.25h1.05l-.08.08.21.17.25-.25h.88l2.64 2.64v.75l-2.64-2.64v.67l2.64 2.65v.75l-2.64-2.64v.67l2.64 2.64v.38h-.38l-2.26-2.27v.68l1.59 1.59h-.75l-.84-.84v.63l.21.21h-.25l-5.83 5.83v-1.05l5.07-5.03-.21-.21-.33.33.12.13h-.21l-4.44 4.45v-1.05l3.65-3.65-.21-.21-.34.33.13.13h-.21l-3.02 3.02v-1.05l2.22-2.22-.21-.21-.34.33.13.13h-.21l-1.59 1.59v-1.05l.79-.79-.16-.21-.34.33.08.13h-.21l-.16.17v-.17Zm5.57-5.41-.33.33.21.17.29-.33-.17-.17Zm0 1.42-.33.34.21.17.29-.34-.17-.17Zm0 1.43-.33.34.21.16.29-.33-.17-.17Zm0 1.43-.33.29.21.21.29-.34-.17-.16Zm-.71-3.57-.33.34.21.16.33-.33-.21-.17Zm0 1.43-.33.33.21.17.33-.33-.21-.17Zm0 1.42-.33.34.21.17.33-.34-.21-.17Zm-.71-3.56-.34.33.21.17.34-.33-.21-.17Zm0 1.42-.34.34.21.17.34-.34-.21-.17Zm0 1.43-.34.34.21.16.34-.33-.21-.17Zm0 1.43-.34.29.21.21.34-.34-.21-.16Zm-.71-3.57-.34.34.21.16.34-.33-.21-.17Zm0 1.43-.34.33.21.17.34-.33-.21-.17Zm0 1.42-.34.34.21.17.34-.34-.21-.17Zm-.72-3.56-.33.33.21.17.33-.33-.21-.17Zm0 1.42-.33.34.21.17.33-.34-.21-.17Zm0 1.43-.33.34.21.16.33-.33-.21-.17Zm0 1.43-.33.29.21.21.33-.34-.21-.16Zm-.71-3.57-.34.34.21.16.34-.33-.21-.17Zm0 1.43-.34.33.21.17.34-.33-.21-.17Zm0 1.42-.34.34.21.17.34-.34-.21-.17Zm-.67-3.56-.34.33.17.17.34-.33-.17-.17Zm0 1.42-.34.34.17.17.34-.34-.17-.17Zm0 1.43-.34.34.17.16.34-.33-.17-.17Zm0 1.43-.34.29.17.21.34-.34-.17-.16Zm-.71-3.57-.34.34.17.16.33-.33-.16-.17Zm0 1.43-.34.33.17.17.33-.33-.16-.17Zm0 1.42-.34.34.17.17.33-.34-.16-.17Zm-1.68 1.85h-.76l-1.13-1.13v-.76l1.89 1.89Zm28.9 23.49-1.47-1.47v-.75l2.22 2.22h-.75Zm1.43 0-2.9-2.89v-.76l3.65 3.65h-.75Zm-2.86 0-.04-.04v-.76l.8.8h-.76Zm7.09 0-5.87-5.87h.75l5.88 5.87h-.76Zm-2.81 0-4.32-4.32v-.76l5.08 5.08h-.76Zm-4.32-5.7v-.17h.59l5.87 5.87h-.75l-5.71-5.7Zm14.68-8.48-3.44-3.44h.76l2.68 2.69v.75Zm0 1.43-4.86-4.87h.75l4.11 4.11v.76Zm-.58-4.87h.58v.59l-.58-.59Zm.58 2.02-2.01-2.02h.75l1.26 1.26v.76Zm-14.68-12.92V23h.84l-.84.84Zm0 .37 1.18-1.21h1.04l-2.22 2.26v-1.05Zm7.93-1.21-5.87 5.87h-1.05l5.87-5.87h1.05Zm-7.93 2.6 2.6-2.6h1.05l-3.65 3.65V25.6Zm0 1.42 4.03-4.02h1.05l-5.08 5.07v-1.05Zm17.16 16.53-2.48 2.48v-1.05l1.43-1.43h1.05Zm-1.39 0-1.09 1.09v-1.05l.04-.04h1.05ZM111.09 23h1.05l-5.87 5.87h-.63v-.42l5.45-5.45Zm15.11 0v8.81h-5.88v-2.94h-.92l.92-.92v-.34l-1.3 1.26h-1.05l2.35-2.31v-.38l-2.68 2.69h-1.05l3.73-3.73v-.38l-4.11 4.11h-1.05l5.16-5.16v-.38l-5.53 5.54h-.34v5.87h.34l5.53 5.54v.33h-.42l-5.87-5.87h-.63l5.87 5.87h-.75l-5.87-5.87h-.67l5.87 5.87h-.76l-5.87-5.87h-.67l5.87 5.87h-.75l-5.88-5.87h-.67l5.88 5.87h-.55v5.88h.29l5.62 5.58.3-.34-.17-.17-.17.17v-.33l-4.91-4.91h.76l4.19 4.15.3-.34-.17-.16-.17.16v-.33l-3.48-3.48h.76l2.76 2.72.3-.33-.17-.17-.17.17v-.34l-2.05-2.05h.75l1.34 1.34.3-.34-.17-.21-.17.17v-.33l-.63-.63h.63v-.09l2.86-2.85h1.04l-2.93 2.94h.38l2.93-2.94h1.05l-2.94 2.94h.38l2.94-2.94h.17v.88l-2.06 2.06h.38l1.68-1.68v1.05l-.63.63h.37l.26-.25v1.09l-.05-.05-.33.34.21.21.17-.17v1.09l-.05-.04-.33.34.21.16.17-.16v1.09h-.05l-.33.33.21.17.17-.17v1.09h-.05l-.33.34.21.17.17-.17v.46h-.63l-.13-.08-.08.08h-1.22l-.08-.08-.13.08h-1.22l-.08-.08-.13.08h-1.21l-.09-.08-.08.08h-1.26l-5.87-5.87h-.63l5.87 5.87h-.75l-5.88-5.87h-.67l5.88 5.87h-.76l-5.87-5.87h-.67l5.87 5.87h-.76l-5.87-5.87h-.67l5.87 5.87h-.75l-5.87-5.87h.25v-6.63l.75.75h.67l-1.42-1.42v-.76l2.18 2.18h.63l-2.81-2.81v-.75l3.56 3.56h.67l-4.23-4.23v-.76l4.99 4.99h.67l-5.66-5.66v-6.08h-.51l5.88-5.87H115l-5.88 5.87h.34l5.87-5.87h1.05l-5.87 5.87h.37l5.88-5.87h1.05l-5.88 5.87h.38l5.87-5.87h1.05l-5.87 5.87h.38l5.87-5.87h6.59Zm-.55 23.78-.21-.21-.29.34.16.21.34-.34Zm0 1.43-.21-.21-.29.33.16.21.34-.33Zm0 1.38-.21-.17-.29.34.16.17.34-.34Zm0 1.43-.21-.17-.29.34.16.16.34-.33Zm-.71-3.53-.17-.21-.34.34.17.21.34-.34Zm0 1.39-.17-.17-.34.34.17.16.34-.33Zm0 1.42-.17-.16-.34.33.17.17.34-.34Zm0 1.43-.17-.17-.34.34.17.17.34-.34Zm-.72-4.95-.16-.21-.34.34.17.21.33-.34Zm0 1.43-.16-.21-.34.33.17.21.33-.33Zm0 1.38-.16-.17-.34.34.17.17.33-.34Zm0 1.43-.16-.17-.34.34.17.16.33-.33Zm-.71-3.53-.17-.21-.33.34.17.21.33-.34Zm0 1.39-.17-.17-.33.34.17.16.33-.33Zm0 1.42-.17-.16-.33.33.17.17.33-.34Zm0 1.43-.17-.17-.33.34.17.17.33-.34Zm-.71-4.95-.17-.21-.34.34.17.21.34-.34Zm0 1.43-.17-.21-.34.33.17.21.34-.33Zm0 1.38-.17-.17-.34.34.17.17.34-.34Zm0 1.43-.17-.17-.34.34.17.16.34-.33Zm-.72-3.53-.16-.21-.34.34.17.21.33-.34Zm0 1.39-.16-.17-.34.34.17.16.33-.33Zm0 1.42-.16-.16-.34.33.17.17.33-.34Zm0 1.43-.16-.17-.34.34.17.17.33-.34Zm-.71-4.95-.17-.21-.33.34.17.21.33-.34Zm0 1.43-.17-.21-.33.33.17.21.33-.33Zm0 1.38-.17-.17-.33.34.17.17.33-.34Zm0 1.43-.17-.17-.33.34.17.16.33-.33Zm16.28-12.92v-.76l5.87 5.88v.75l-5.87-5.87Zm0-1.39v-.75l5.87 5.87v.76l-5.87-5.88Zm0 2.81v-.75l5.87 5.87v.76l-5.87-5.88Zm0-5.66v-.75l5.87 5.87v.75l-5.87-5.87Zm0 1.43v-.76l5.87 5.87v.76l-5.87-5.87Zm0-2.86v-.75l5.87 5.87v.76l-5.87-5.88Zm5.87 3.7v.75l-5.87-5.87v-.76l5.87 5.88Zm2.94 16.23h-.88l.88-.88v.88Zm-1.26 0h-1.05l2.31-2.31v1.05l-1.26 1.26Zm-10.49-5.12v-.75h.76l-.76.75Zm8.73 1.6 2.3-2.35h.72v.33l-3.23 3.23.21.17 3.02-3.02v1.05l-3.23 3.23.21.17 3.02-3.02v1.05l-2.69 2.68h-1.05l.34-.34-.21-.16-.34.33.21.17h-1.42l.33-.34-.21-.16-.29.33.17.17h-1.43l.34-.34-.17-.16-.34.33.17.17h-1.43l.34-.34-.17-.16-.33.33.16.17h-1.38l.59-.59v-.21l.08.09.34-.34-.17-.17-1.22 1.22h-1.05l2.02-2.01v-.21l.08.08.34-.33-.17-.17-2.64 2.64h-.55v-.5l2.94-2.94v-.21l.08.13.34-.34-.17-.21-3.19 3.19v-1.05l2.94-2.94v-.21l.08.13.34-.34-.17-.21-3.19 3.19V49l2.52-2.51h.42v-.63l.63.63.16.21.21-.21h.26l-1.26-1.26v-.76l2.01 2.02h.04l.17.21.21-.21h.25l-2.68-2.69v-.75l3.44 3.44h.04l.17.21.21-.21h.25l-4.11-4.11v-.76l4.86 4.87h.05-.05l.21.21.21-.21h.25l-5.53-5.54v-.75l5.87 5.87v.42h.46l-.75.71.21.21.88-.92h1.05l-2.14 2.14.21.21Zm-5 2.09.34-.33-.17-.17-.33.34.16.16Zm0-1.42.34-.3-.17-.21-.33.34.16.17Zm0-1.39.34-.33-.17-.21-.33.33.16.21Zm.72 3.53.33-.34-.16-.17-.34.34.17.17Zm0-1.43.33-.33-.16-.17-.34.33.17.17Zm0-1.38.33-.34-.16-.21-.34.34.17.21Zm0-1.43.33-.34-.16-.21-.34.34.17.21Zm.71 3.52.34-.33-.17-.17-.34.34.17.16Zm0-1.42.34-.3-.17-.21-.34.34.17.17Zm0-1.39.34-.33-.17-.21-.34.33.17.21Zm.71 3.53.34-.34-.17-.17-.33.34.16.17Zm0-1.43.34-.33-.17-.17-.33.33.16.17Zm0-1.38.34-.34-.17-.21-.33.34.16.21Zm0-1.43.34-.34-.17-.21-.33.34.16.21Zm.72 3.52.33-.33-.21-.17-.29.34.17.16Zm0-1.42.33-.3-.21-.21-.29.34.17.17Zm0-1.39.33-.33-.21-.21-.29.33.17.21Zm.71 3.53.34-.34-.21-.17-.34.34.21.17Zm0-1.43.34-.33-.21-.17-.34.33.21.17Zm0-1.38.34-.34-.21-.21-.34.34.21.21Zm0-1.43.34-.34-.21-.21-.34.34.21.21Zm.71 3.52.34-.33-.21-.17-.34.34.21.16Zm0-1.42.34-.3-.21-.21-.34.34.21.17Zm0-1.39.34-.33-.21-.21-.34.33.21.21Zm-8.01.51v-1.05l1.09-1.09h1.05l-2.14 2.14ZM146.08 23h6.25v8.81h-5.87v-2.94h-.55l.55-.55v-.37l-.93.92h-1.05l1.98-1.97v-.38l-2.35 2.35h-.76l.17.17v.75l-.92-.92h-.67l1.59 1.59v.76l-2.35-2.35h-.67l3.02 3.02v.75l-3.78-3.77h-.67l4.45 4.45v.75l-5.2-5.2h-.63l5.83 5.83v.76l-5.87-5.88v-.71h-2.94v2.94h-5.87V23h10.07l.04.04.04-.04h1.34l.04.04.05-.04h1.3l.08.04.04-.04h1.3l.04.04.09-.04h1.05l-.8.79v.34l-.17-.17-.33.34.16.16 1.47-1.46h1.05l-2.18 2.18v.38l-.17-.21-.33.33.16.21 2.9-2.89Zm-8.43 5.62.21-.21-.17-.21-.04.04v.38Zm0-1.43.21-.21-.17-.21-.04.04v.38Zm0-1.42.21-.21-.17-.21-.04.04v.38Zm0-1.43.21-.21-.17-.17h-.04v.38Zm.58 3.69.34-.34-.17-.21-.33.34.16.21Zm0-1.43.34-.33-.17-.21-.33.33.16.21Zm0-1.42.34-.34-.17-.17-.33.34.16.17Zm0-1.43.34-.33-.17-.17-.33.33.16.17Zm.72 4.99.33-.33-.21-.21-.29.33.17.21Zm0-1.42.33-.34-.21-.21-.29.34.17.21Zm0-1.43.33-.33-.21-.21-.29.33.17.21Zm0-1.43.33-.33-.21-.17-.29.34.17.16Zm.71 3.57.34-.34-.21-.21-.34.34.21.21Zm0-1.43.34-.33-.21-.21-.34.33.21.21Zm0-1.42.34-.34-.21-.17-.34.34.21.17Zm0-1.43.34-.33-.21-.17-.34.33.21.17Zm.71 4.99.34-.33-.21-.21-.34.33.21.21Zm0-1.42.34-.34-.21-.21-.34.34.21.21Zm0-1.43.34-.33-.21-.21-.34.33.21.21Zm0-1.43.34-.33-.21-.17-.34.34.21.16Zm.72 3.57.33-.34-.21-.21-.33.34.21.21Zm0-1.43.33-.33-.21-.21-.33.33.21.21Zm0-1.42.33-.34-.21-.17-.33.34.21.17Zm0-1.43.33-.33-.21-.17-.33.33.21.17Zm.71 4.99.34-.33-.21-.21-.34.33.21.21Zm0-1.42.34-.34-.21-.21-.34.34.21.21Zm0-1.43.34-.33-.21-.21-.34.33.21.21Zm0-1.43.34-.33-.21-.17-.34.34.21.16Zm.71 3.57.3-.34-.17-.21-.34.34.21.21Zm0-1.43.3-.33-.17-.21-.34.33.21.21Zm0-1.42.3-.34-.17-.17-.34.34.21.17Zm0-1.43.3-.33-.17-.17-.34.33.21.17Zm3.95 1.72v-.38l-2.94 2.94v.34l-.17-.17-.33.33.16.21 3.28-3.27Zm0-1.42v-.38l-2.94 2.93v.34l-.17-.17-.33.34.16.21 3.28-3.27Zm20.22 26.97-1.35 1.34h-1.05l2.4-2.39v1.05Zm-8.06 1.34 5.87-5.87h1.05l-5.87 5.87h-1.05Zm8.06-.96v.96h-.97l.97-.96Zm-11.75-3.86 1.05-1.05h1.05l-2.1 2.09v-1.04Zm14.39-23.2 1.34-1.34h1.05l-2.39 2.39v-1.05Zm-14.39 22.82v-.67h.67l-.67.67Zm11.75 1.01-4.2 4.19h-1.05l5.25-5.24v1.05Zm0 1.42-2.77 2.77h-1.05l3.82-3.82v1.05ZM180.6 23h.46v.58l-3.27 3.28.21.16 3.06-3.06v1.05l-3.27 3.27.21.17 3.06-3.06v1.05l-2.43 2.43h-.5v.46l-.46-.46h-.09l.04-.04-.21-.17-.21.21h-.21l1.14 1.13v.76l-1.89-1.89h-.08l.04-.04-.17-.17-.25.21h-.21l2.56 2.56v.75l-3.32-3.31h-.08l.04-.04-.17-.17-.25.21h-.21l3.99 3.98v.76l-4.74-4.74h-.05v-.04l-.16-.17-.21.21h-.25l5.41 5.41v6.42l-.09-.09h-.67l.76.76v.75l-1.51-1.51h-.67l2.18 2.19v.75l-2.94-2.94h-.63l3.57 3.57v.76l-4.32-4.33h-.67l4.99 5v.75l-5.75-5.75h-8.64v5.88h.38l-5.88 5.87h-1.05l5.88-5.87h-.38l-5.87 5.87h-1.05l5.87-5.87h-.38l-5.87 5.87h-.46v-.59l5.29-5.28h-.38l-4.91 4.91v-1.05l3.86-3.86h-.38l-3.48 3.48v-1.05l2.43-2.43h.51V28.87h-.09l-2.85-2.85v-.76l3.61 3.61h.67l-4.28-4.28v-.75l5.03 5.03h.67l-5.7-5.71V23h.59l5.87 5.87h.67L156.19 23h.75l5.88 5.87h.63L157.57 23h.76l5.87 5.87h-.46v5.87h8.51v-.67l.68.67h.67l-1.35-1.34v-.76l2.1 2.1h.67l-2.77-2.77v-.75l3.53 3.52h.67l-4.2-4.19v-.76l4.95 4.95h.63l-5.58-5.58v-.29h-.33l.33-.34v-.12l.09.04.29-.34-.17-.16-.92.92h-1.05l1.76-1.76v-.13l.09.04.29-.33-.17-.17-2.35 2.35h-.79v-.25l2.93-2.94v-.12l.09.04.29-.3-.17-.21-3.14 3.15v-1.05l2.93-2.94v-.12l.09.08.29-.33-.17-.21-3.14 3.14v-1.04l2.77-2.77h1.05l-.3.29.17.21.33-.34-.12-.16h1.34l-.29.29.17.21.33-.34-.17-.16h1.39l-.3.29.17.21.34-.34-.17-.16h1.38l-.29.29.17.21.33-.34-.16-.16h1.38l-1.05 1 .21.21 1.22-1.21h1l-2.43 2.43.21.17 2.6-2.6Zm-7.76 4.57.17.17.33-.34-.16-.17-.34.34Zm0-1.43.17.17.33-.34-.16-.16-.34.33Zm0-1.42.17.21.33-.34-.16-.21-.34.34Zm.71 3.56.17.17.34-.34-.17-.16-.34.33Zm0-1.42.17.16.34-.33-.17-.17-.34.34Zm0-1.43.17.17.34-.3-.17-.21-.34.34Zm0-1.43.17.21.34-.33-.17-.21-.34.33Zm.72 3.57.17.17.33-.34-.17-.17-.33.34Zm0-1.43.17.17.33-.34-.17-.16-.33.33Zm0-1.42.17.21.33-.34-.17-.21-.33.34Zm.71 3.56.17.17.33-.34-.16-.16-.34.33Zm0-1.42.17.16.33-.33-.16-.17-.34.34Zm0-1.43.17.17.33-.3-.16-.21-.34.34Zm0-1.43.17.21.33-.33-.16-.21-.34.33Zm.71 3.57.17.17.34-.34-.17-.17-.34.34Zm0-1.43.17.17.34-.34-.17-.16-.34.33Zm0-1.42.17.21.34-.34-.17-.21-.34.34Zm.72 3.56.16.17.34-.34-.17-.16-.33.33Zm0-1.42.16.16.34-.33-.17-.17-.33.34Zm0-1.43.16.17.34-.3-.17-.21-.33.34Zm0-1.43.16.21.34-.33-.17-.21-.33.33Zm.71 3.57.17.17.33-.34-.21-.17-.29.34Zm0-1.43.17.17.33-.34-.21-.16-.29.33Zm0-1.42.17.21.33-.34-.21-.21-.29.34Zm3.94 3.52v.63h-.63l.63-.63Zm0-.38-1 1.01h-1.05l2.05-2.06v1.05Zm-20.01 24.5h-1.04l5.87-5.87h.8v.25l-5.63 5.62ZM169.32 24v-1h1l-1 1Zm-3.86-1 1.22 1.21v.76L164.7 23h.76Zm.63 0h.59v.58l-.59-.58Zm-2.06 0 2.65 2.64v.75l-3.4-3.39h.75Zm-9.1 3.69 2.18 2.18h-.75l-1.43-1.43v-.75Zm0 1.42.75.76h-.75v-.76Zm17.32 13.8v-.75l5.33 5.33h3.48v5.87h-11.74v-5.87h3.23l-.3-.3v-.75l1.05 1.05h.67l-1.72-1.72v-.76l2.48 2.48h.67l-3.15-3.15v-.75l3.91 3.9h.67l-4.58-4.58Zm-5.57-13.42v.38h-.38L160.42 23h.76l5.5 5.49ZM162.61 23l4.07 4.07v.75L161.85 23h.76Zm-2.86 0 5.88 5.87h-.76L159 23h.75Zm47.99 0h3.53v5.87h-2.94v.38l-5.87-5.88v.68l5.87 5.87v.75l-5.87-5.87v.67l5.87 5.87v12.65q0 .23-.04.44l-7.89 7.89q-.21.04-.44.04h-4.55q-1.85 0-3.44-.69-1.59-.69-2.79-1.89t-1.89-2.79q-.69-1.59-.69-3.44v-.08l5.87-5.88v1.05l-4.9 4.91h.37l4.53-4.53v1.05l-3.48 3.48h.38l3.1-3.1v1.05l-2.05 2.05h.38l1.67-1.68v1.05l-.63.63h.34l.29-.25v.25q0 1.22.86 2.08.86.86 2.08.86h4.11q.76 0 1.34-.34l-1.34 1.34v.38l4.49-4.49-.17-.16-.33.33h-.05l-1.34 1.34q.34-.58.34-1.34v-.04l.12-.13-.12-.12v-1.14l.12-.16-.12-.13V40.7l.12-.13-.12-.17v-1.13l.12-.12-.12-.13v-1.17l.12-.13-.12-.13v-1.17l.12-.13-.12-.12v-1.18l.12-.12-.12-.13v-1.17l.12-.13-.12-.12v-1.14l.12-.16-.12-.13v-.76l.67.68h.63l-1.3-1.3v-.76l2.05 2.06h.67l-2.72-2.73v-.21h-2.94V23h3.31l5.5 5.49v-.63L203.46 23h.76l4.11 4.11v-.67L204.89 23h.75l2.69 2.68v-.67L206.32 23h.75l1.26 1.25v-.67l-.59-.58Zm-4.78 20.01.34-.34-.17-.17-.34.34.17.17Zm0-1.43.34-.34-.17-.16-.34.33.17.17Zm0-1.38.34-.34-.17-.21-.34.34.17.21Zm0-1.43.34-.34-.17-.21-.34.34.17.21Zm0-1.43.34-.33-.17-.17-.34.29.17.21Zm0-1.42.34-.34-.17-.17-.34.34.17.17Zm0-1.43.34-.34-.17-.16-.34.33.17.17Zm0-1.43.34-.33-.17-.17-.34.34.17.16Zm-.5-4.74 3.48 3.49h.67l-4.15-4.16v.67Zm4.07 12.55.33-.3-.21-.21-.33.34.21.17Zm.33 1.09-.21-.17-.33.33.21.17.33-.33Zm-.33-2.48.33-.33-.21-.21-.33.33.21.21Zm0-1.42.33-.34-.21-.21-.33.34.21.21Zm0-1.43.33-.34-.21-.16-.33.33.21.17Zm0-1.43.33-.33-.21-.17-.33.34.21.16Zm0-1.42.33-.34-.21-.17-.33.34.21.17Zm0-1.43.33-.33-.21-.17-.33.33.21.17Zm-.72 9.23.34-.34-.21-.16-.34.33.21.17Zm.34 1.09-.21-.17-.34.34.21.17.34-.34Zm-.34-2.47.34-.34-.21-.21-.34.34.21.21Zm0-1.43.34-.34-.21-.21-.34.34.21.21Zm0-1.43.34-.33-.21-.17-.34.29.21.21Zm0-1.42.34-.34-.21-.17-.34.34.21.17Zm0-1.43.34-.34-.21-.16-.34.33.21.17Zm0-1.43.34-.33-.21-.17-.34.34.21.16Zm-.58-1.21-.34.33.21.17.33-.33-.2-.17Zm0 1.42-.34.34.21.17.33-.34-.2-.17Zm0 1.43-.34.34.21.16.33-.33-.2-.17Zm0 1.43-.34.33.21.17.33-.34-.2-.16Zm0 1.38-.34.34.21.21.33-.34-.2-.21Zm0 1.43-.34.33.21.21.33-.33-.2-.21Zm0 1.42-.34.34.21.17.33-.3-.2-.21Zm0 1.43-.34.33.21.17.33-.33-.2-.17Zm-.72-9.23-.29.34.17.16.33-.33-.21-.17Zm0 1.43-.29.33.17.17.33-.34-.21-.16Zm0 1.42-.29.34.17.17.33-.34-.21-.17Zm0 1.43-.29.29.17.21.33-.33-.21-.17Zm0 1.38-.29.34.17.21.33-.34-.21-.21Zm0 1.43-.29.34.17.21.33-.34-.21-.21Zm0 1.43-.29.33.17.17.33-.34-.21-.16Zm0 1.42-.29.34.17.17.33-.34-.21-.17Zm-.67-10.65-.33.33.16.17.34-.33-.17-.17Zm0 1.42-.33.34.16.17.34-.34-.17-.17Zm0 1.43-.33.34.16.16.34-.33-.17-.17Zm0 1.43-.33.33.16.17.34-.34-.17-.16Zm0 1.38-.33.34.16.21.34-.34-.17-.21Zm0 1.43-.33.33.16.21.34-.33-.17-.21Zm0 1.42-.33.34.16.17.34-.3-.17-.21Zm-.17 1.93.34-.33-.17-.17-.33.33.16.17Zm-4.15 6.63v.38l5.91-5.92-.2-.16-.34.33h.04-.04l-5.37 5.37Zm0 1.43v.37l7.34-7.34-.21-.16-.33.33h.04-.04l-6.8 6.8Zm0 1.8 8.73-8.77-.17-.16-.34.33-8.22 8.22v.38Zm7.84-18.16-.33.33.21.17.33-.34-.21-.16Zm-.33-1.09.21.16.33-.33-.21-.17-.33.34Zm.33 2.51-.33.34.21.17.33-.34-.21-.17Zm0 1.43-.33.29.21.21.33-.33-.21-.17Zm0 1.38-.33.34.21.21.33-.34-.21-.21Zm0 1.43-.33.34.21.21.33-.34-.21-.21Zm0 1.43-.33.33.21.17.33-.34-.21-.16Zm0 1.42-.33.34.21.17.33-.34-.21-.17Zm.59-.21.3-.33-.17-.17-.34.33.21.17Zm0-1.42.3-.3-.17-.21-.34.34.21.17Zm0-1.39.3-.33-.17-.21-.34.33.21.21Zm0-1.42.3-.34-.17-.21-.34.34.21.21Zm0-1.43.3-.34-.17-.16-.34.33.21.17Zm0-1.43.3-.33-.17-.17-.34.34.21.16Zm0-1.42.3-.34-.17-.17-.34.34.21.17Zm.3-1.76-.17-.17-.34.33.21.17.3-.33Zm-.21-.21-5.58-5.58v.67l4.9 4.91h.68Zm-15.57 1.55v1.05l-5.87 5.87v-1.05l5.87-5.87Zm-5.87 9.73v-1.05l5.87-5.87v1.05l-5.87 5.87Zm5.87-11.16v1.05l-5.87 5.87V37.8l5.87-5.87Zm0 2.81v1.05l-5.87 5.87v-1.05l5.87-5.87Zm-5.87-5.83v-.04h-2.94V23h11.75v5.87h-3.1l-5.71 5.7v-1.04l4.66-4.66h-.38l-4.28 4.28V32.1l3.23-3.23h-.34l-2.89 2.89v-1.05l1.85-1.84h-.38l-1.47 1.47v-1.05l.42-.42h-.38l-.04.04Zm21.31 17.28-5.75 5.75q-.33.13-.67.19-.33.06-.67.15l7.43-7.43q-.09.34-.15.67-.06.34-.19.67Zm-15.44-15.68v1.04l-5.87 5.88v-1.05l5.87-5.87Zm10.28 21.22 4.95-4.95q-.67 1.72-1.95 3-1.28 1.28-3 1.95Zm-10.28-22.65v1.05L186.6 36v-1.05l5.87-5.87Zm24.37 10.02v-.75l5.88 5.87v.76l-5.88-5.88Zm0 1.43v-.75l5.88 5.87v.75l-5.88-5.87Zm17.04 10.15-4.33-4.32q.13-.08.28-.12.14-.05.27-.13l4.2 4.24q-.26.16-.42.33Zm-17.04-13v-.76l5.88 5.88v.75l-5.88-5.87Zm5.29 8.81h6.46q.29 0 .42-.04l4.49 4.48q-.13.09-.25.15-.13.06-.26.15l-4.4-4.45v.67l3.99 3.99q-.34.16-.55.25l-3.44-3.48v.67l2.98 2.98q-.25.08-.59.16l-2.39-2.39v.67l1.85 1.85-.63.13-1.22-1.22v.67l.63.59q-.21.04-.63.04h-14.68v-5.87h3.23l-.3-.3v-.75l1.05 1.05h.63l-1.68-1.68v-.76l2.44 2.44h.67l-3.11-3.11v-.75l3.86 3.86h.68l-4.54-4.53v-.76l5.29 5.29Zm.59-5.08v.71l-5.88-5.87v-.71l5.88 5.87Zm13.84 6.25-4.78-4.74q-.09-.63-.3-1.09l5.33 5.33-.25.5Zm-1.89 2.35-4.19-4.15q.17-.09.42-.34l4.15 4.16q-.25.25-.38.33Zm-2.98-5.79.13-.63 4.49 4.49q-.09.13-.15.23-.06.11-.15.23l-4.32-4.32Zm3.7 5.12-4.2-4.2q.13-.12.29-.46l4.24 4.24q-.25.25-.33.42Zm-7.72-20.47h-1.05l5.24-5.2q.17.08.34.17.17.08.38.16l-4.91 4.87Zm.92 0h-.55l4.74-4.74q.21.08.36.19.15.1.32.19l-4.41 4.4q-.17-.04-.46-.04Zm5.66-3.73-4.19 4.19q-.17-.13-.34-.19t-.37-.14l4.32-4.33q.12.13.27.24.15.1.31.23Zm.67.71-4.15 4.19q-.21-.37-.5-.54l4.15-4.2q.13.17.27.3.15.12.23.25Zm.63.8-4.36 4.4q-.04-.21-.12-.4-.09-.19-.17-.4l4.23-4.19q.09.12.21.27.13.15.21.32Zm-4.32 4.86v-.17l4.49-4.48q.09.16.19.33t.19.34l-5.16 5.16q.29-.55.29-1.18Zm1.97 7.13-.37.25 4.86 4.87q-.04.21-.04.36 0 .14-.04.35l-5.29-5.32q-.12.08-.23.12l-.23.09 5.67 5.66q-.09.42-.17.63l-6.13-6.17-.16.17q-.09.04-.13.04-.04 0-.13.04l6.42 6.42q-.08.13-.1.27-.02.15-.11.28l-6.84-6.84q-.12.04-.23.06-.1.02-.23.02l.3-.25-.21-.21-.34.34.55.54q-.59-.29-1.09-.29v-.04h-6.21v.71l-5.88-5.87v-.76l5.88 5.88v-.68l-5.88-5.87v-.75l5.88 5.87v-.67l-5.88-5.87v-.76l5.88 5.87v-.67l-5.88-5.87v-.76l5.88 5.88v-.67l-5.88-5.88v-.29h-.16l.16-.17v-.29l.13.17.34-.34-.17-.21-.84.84h-1.05l1.59-1.59v-.3l.13.17.34-.34-.17-.16-2.27 2.22h-.96v-.04l2.93-2.94v-.29l.13.12.34-.33-.17-.17-3.23 3.23V27.4l2.93-2.94v-.29l.13.13.34-.34-.17-.17-3.23 3.23v-1.05l2.93-2.93V23h6.76l-1.13 1.13.21.17 1.3-1.3h1.04l-2.55 2.56.21.16L225.4 23h1.05l-3.98 3.98.21.17 4.15-4.15h1.05l-5.41 5.37.21.21 5.57-5.58h.68q.16 0 .33.04l-5.87 5.83h-.67v.5l-.63-.63-.09.13h-.46l1.18 1.17v.76l-2.02-2.06-.12.13h-.46l2.6 2.6v.76l-3.44-3.49-.13.13h-.42l3.99 3.98v.76l-4.87-4.87-.12.13h-.42l5.41 5.41v-.13h5.87q.59 0 1.17-.25l-.33.3h.08l.17.12 6.54-6.54q.09.21.17.36.09.14.17.35l-5.91 5.92q.12 0 .29.08l5.7-5.7q.09.21.13.39.04.19.13.4l-5.29 5.29.17.17 5.16-5.12q.12.46.12.92l-4.32 4.32.25.13 4.12-4.11v.71q0 .17-.05.34l-3.44 3.48q.17.08.21.12l3.19-3.19q-.04.34-.12.68-.09.33-.17.67l-2.31 2.3q.04.05.06.05.02 0 .07.04l.08.08 1.89-1.89q-.51 1.35-1.39 2.4l.34.33q.42.46.75 1.01.34.54.63 1.13l-2.09-2.1q-.13.21-.34.34l2.85 2.85.26 1.01-3.49-3.48q-.08.08-.19.14-.1.07-.18.15l3.98 3.98q0 .21.02.4.02.19.02.4l-4.49-4.49Zm.89-1.97-.34.34.17.16.33-.33-.16-.17Zm-.72-.71-.33.33.16.17.34-.33-.17-.17Zm0 1.42-.33.34.16.17.34-.34-.17-.17Zm-11.28-14.3-.34.34.21.16.34-.33-.21-.17Zm0 1.43-.34.33.21.17.34-.34-.21-.16Zm0 1.42-.34.34.21.17.34-.34-.21-.17Zm0 1.43-.34.29.21.21.34-.33-.21-.17Zm-.71-3.57-.3.34.17.17.33-.34-.2-.17Zm0 1.43-.3.34.17.16.33-.33-.2-.17Zm0 1.43-.3.33.17.17.33-.34-.2-.16Zm0 1.38-.3.34.17.21.33-.34-.2-.21Zm-.68-4.95-.33.34.17.16.33-.33-.17-.17Zm0 1.43-.33.33.17.17.33-.34-.17-.16Zm0 1.42-.33.34.17.17.33-.34-.17-.17Zm0 1.43-.33.29.17.21.33-.33-.17-.17Zm-.71-3.57-.33.34.16.17.34-.34-.17-.17Zm0 1.43-.33.34.16.16.34-.33-.17-.17Zm0 1.43-.33.33.16.17.34-.34-.17-.16Zm0 1.38-.33.34.16.21.34-.34-.17-.21Zm-.71-4.95-.34.34.17.16.34-.33-.17-.17Zm0 1.43-.34.33.17.17.34-.34-.17-.16Zm0 1.42-.34.34.17.17.34-.34-.17-.17Zm0 1.43-.34.29.17.21.34-.33-.17-.17Zm-.72-3.57-.33.34.17.17.33-.34-.17-.17Zm0 1.43-.33.34.17.16.33-.33-.17-.17Zm0 1.43-.33.33.17.17.33-.34-.17-.16Zm0 1.38-.33.34.17.21.33-.34-.17-.21Zm-.71-4.95-.33.34.16.16.34-.33-.17-.17Zm0 1.43-.33.33.16.17.34-.34-.17-.16Zm0 1.42-.33.34.16.17.34-.34-.17-.17Zm0 1.43-.33.29.16.21.34-.33-.17-.17Zm11.12 11.95.33-.33-.21-.17-.33.34.21.16Zm0-1.42.33-.34-.21-.17-.33.34.21.17Zm0-1.43.33-.33-.21-.17-.33.33.21.17Zm0-1.42.33-.34-.21-.17-.33.34.21.17Zm.71 3.56.34-.33-.21-.17-.34.33.21.17Zm0-1.43.34-.33-.21-.17-.34.34.21.16Zm0-1.42.34-.34-.21-.16-.34.33.21.17Zm.71 3.56.3-.33-.17-.17-.34.34.21.16Zm0-1.42.3-.34-.17-.17-.34.34.21.17Zm0-1.43.3-.33-.17-.17-.34.33.21.17Zm0-1.42.3-.34-.17-.17-.34.34.21.17Zm.68 3.56.33-.33-.17-.17-.33.33.17.17Zm0-1.43.33-.33-.17-.17-.33.34.17.16Zm0-1.42.33-.34-.17-.16-.33.33.17.17Zm.71 3.56.33-.33-.16-.17-.34.34.17.16Zm0-1.42.33-.34-.16-.17-.34.34.17.17Zm0-1.43.33-.33-.16-.17-.34.33.17.17Zm.88-1.21-.34.33.17.17.34-.34-.17-.16Zm0 1.42-.34.34.17.16.34-.33-.17-.17Zm-.34 1.76.17.17.34-.33-.17-.17-.34.33ZM215.46 23h1.05l-2.6 2.6v-1.05l1.55-1.55Zm9.35 5.87h-1.04l5.83-5.79q.21 0 .44.04t.44.09l-5.67 5.66ZM213.91 23h1.17l-1.17 1.17V23Zm12.33 5.87h-1.05l5.58-5.58q.21.08.4.13.19.04.4.12l-5.33 5.33Z" class="tp-name" data-gra="path-name" transform="translate(46.155 87.32)"/></g></svg>